<svg xmlns="http://www.w3.org/2000/svg" xmlns:xlink="http://www.w3.org/1999/xlink" width="500" zoomAndPan="magnify" viewBox="0 0 375 374.999991" height="500" preserveAspectRatio="xMidYMid meet" version="1.0"><defs><clipPath id="d090ea72e4"><path d="M 124 309 L 153 309 L 153 337.84375 L 124 337.84375 Z M 124 309 " clip-rule="nonzero"/></clipPath><clipPath id="77ed73c60b"><path d="M 0 20.59375 L 375 20.59375 L 375 337.84375 L 0 337.84375 Z M 0 20.59375 " clip-rule="nonzero"/></clipPath></defs><path fill="#72d2e1" d="M 96.386719 135.40625 L 131.539062 135.40625 L 131.539062 170.617188 L 96.386719 170.617188 Z M 96.386719 135.40625 " fill-opacity="1" fill-rule="evenodd"/><path fill="#000000" d="M 191.160156 107.753906 L 219.394531 107.753906 L 219.394531 136.054688 L 191.160156 136.054688 Z M 191.160156 107.753906 " fill-opacity="1" fill-rule="evenodd"/><path fill="#72d2e1" d="M 136.5625 176.574219 L 164.796875 176.574219 L 164.796875 204.851562 L 136.5625 204.851562 Z M 136.5625 176.574219 " fill-opacity="1" fill-rule="evenodd"/><path fill="#000000" d="M 101.105469 207.378906 L 115.222656 207.378906 L 115.222656 221.519531 L 101.105469 221.519531 Z M 101.105469 207.378906 " fill-opacity="1" fill-rule="evenodd"/><path fill="#000000" d="M 89.953125 97.554688 L 104.089844 97.554688 L 104.089844 111.695312 L 89.953125 111.695312 Z M 89.953125 97.554688 " fill-opacity="1" fill-rule="evenodd"/><path fill="#000000" d="M 158.988281 137.144531 L 173.109375 137.144531 L 173.109375 151.285156 L 158.988281 151.285156 Z M 158.988281 137.144531 " fill-opacity="1" fill-rule="evenodd"/><path fill="#000000" d="M 234.300781 95.816406 L 248.417969 95.816406 L 248.417969 109.957031 L 234.300781 109.957031 Z M 234.300781 95.816406 " fill-opacity="1" fill-rule="evenodd"/><path fill="#000000" d="M 222.664062 69.417969 L 242.488281 69.417969 L 242.488281 89.292969 L 222.664062 89.292969 Z M 222.664062 69.417969 " fill-opacity="1" fill-rule="evenodd"/><path fill="#000000" d="M 150.984375 39.886719 L 170.828125 39.886719 L 170.828125 59.742188 L 150.984375 59.742188 Z M 150.984375 39.886719 " fill-opacity="1" fill-rule="evenodd"/><path fill="#000000" d="M 199.066406 61.800781 L 213.183594 61.800781 L 213.183594 75.941406 L 199.066406 75.941406 Z M 199.066406 61.800781 " fill-opacity="1" fill-rule="evenodd"/><path fill="#000000" d="M 270.707031 105.089844 L 284.824219 105.089844 L 284.824219 119.226562 L 270.707031 119.226562 Z M 270.707031 105.089844 " fill-opacity="1" fill-rule="evenodd"/><path fill="#72d2e1" d="M 190.976562 149.589844 L 227.078125 149.589844 L 227.078125 185.746094 L 190.976562 185.746094 Z M 190.976562 149.589844 " fill-opacity="1" fill-rule="evenodd"/><path fill="#72d2e1" d="M 115.503906 242.121094 L 156.933594 242.121094 L 156.933594 283.609375 L 115.503906 283.609375 Z M 115.503906 242.121094 " fill-opacity="1" fill-rule="evenodd"/><path fill="#000000" d="M 167.441406 215.296875 L 195.675781 215.296875 L 195.675781 243.59375 L 167.441406 243.59375 Z M 167.441406 215.296875 " fill-opacity="1" fill-rule="evenodd"/><path fill="#72d2e1" d="M 211.933594 252.160156 L 240.167969 252.160156 L 240.167969 280.4375 L 211.933594 280.4375 Z M 211.933594 252.160156 " fill-opacity="1" fill-rule="evenodd"/><g clip-path="url(#d090ea72e4)"><path fill="#000000" d="M 124.660156 309.566406 L 152.898438 309.566406 L 152.898438 337.84375 L 124.660156 337.84375 Z M 124.660156 309.566406 " fill-opacity="1" fill-rule="evenodd"/></g><path fill="#000000" d="M 233.332031 137.328125 L 261.570312 137.328125 L 261.570312 165.605469 L 233.332031 165.605469 Z M 233.332031 137.328125 " fill-opacity="1" fill-rule="evenodd"/><path fill="#000000" d="M 135.996094 213.800781 L 150.113281 213.800781 L 150.113281 227.941406 L 135.996094 227.941406 Z M 135.996094 213.800781 " fill-opacity="1" fill-rule="evenodd"/><path fill="#000000" d="M 183.835938 193.078125 L 197.957031 193.078125 L 197.957031 207.214844 L 183.835938 207.214844 Z M 183.835938 193.078125 " fill-opacity="1" fill-rule="evenodd"/><path fill="#000000" d="M 171.675781 263.066406 L 196.96875 263.066406 L 196.96875 288.378906 L 171.675781 288.378906 Z M 171.675781 263.066406 " fill-opacity="1" fill-rule="evenodd"/><path fill="#000000" d="M 163.546875 313.808594 L 180.289062 313.808594 L 180.289062 330.554688 L 163.546875 330.554688 Z M 163.546875 313.808594 " fill-opacity="1" fill-rule="evenodd"/><path fill="#000000" d="M 205.054688 206.507812 L 230.328125 206.507812 L 230.328125 231.820312 L 205.054688 231.820312 Z M 205.054688 206.507812 " fill-opacity="1" fill-rule="evenodd"/><path fill="#000000" d="M 236.699219 182.511719 L 261.992188 182.511719 L 261.992188 207.824219 L 236.699219 207.824219 Z M 236.699219 182.511719 " fill-opacity="1" fill-rule="evenodd"/><path fill="#72d2e1" d="M 130.914062 76.34375 L 172.320312 76.34375 L 172.320312 117.816406 L 130.914062 117.816406 Z M 130.914062 76.34375 " fill-opacity="1" fill-rule="evenodd"/><g clip-path="url(#77ed73c60b)"><path fill="#000000" d="M -1.796875 165.667969 C 6.632812 165.445312 13.550781 163.183594 18.894531 158.796875 C 24.179688 154.457031 27.730469 148.496094 29.523438 140.941406 C 31.28125 133.347656 32.167969 120.320312 32.289062 101.957031 C 32.390625 83.597656 32.730469 71.476562 33.296875 65.679688 C 34.304688 56.449219 36.101562 48.996094 38.804688 43.378906 C 41.503906 37.804688 44.832031 33.300781 48.765625 29.90625 C 52.761719 26.574219 57.820312 23.988281 63.953125 22.25 C 68.109375 21.179688 74.925781 20.617188 84.363281 20.617188 L 93.582031 20.617188 L 93.582031 46.53125 L 88.457031 46.53125 C 77.042969 46.53125 69.5 48.550781 65.726562 52.730469 C 62.015625 56.851562 60.160156 66.023438 60.160156 80.34375 C 60.160156 109.1875 59.535156 127.390625 58.304688 135.003906 C 56.351562 146.78125 52.960938 155.851562 48.179688 162.210938 C 43.402344 168.636719 35.917969 174.273438 25.671875 179.21875 C 37.773438 184.289062 46.546875 192.007812 51.992188 202.429688 C 57.398438 212.792969 60.140625 229.859375 60.140625 253.535156 C 60.140625 274.945312 60.304688 287.730469 60.765625 291.789062 C 61.675781 299.285156 63.851562 304.535156 67.464844 307.507812 C 71.011719 310.433594 78.03125 311.949219 88.4375 311.949219 L 93.5625 311.949219 L 93.5625 337.867188 L 84.34375 337.867188 C 73.59375 337.867188 65.789062 336.976562 60.949219 335.21875 C 53.910156 332.695312 48.121094 328.574219 43.503906 322.9375 C 38.882812 317.242188 35.859375 310.089844 34.507812 301.367188 C 33.15625 292.679688 32.367188 278.4375 32.246094 258.601562 C 32.128906 238.828125 31.238281 225.132812 29.484375 217.539062 C 27.691406 209.921875 24.140625 203.964844 18.855469 199.5625 C 13.511719 195.117188 6.59375 192.792969 -1.835938 192.632812 L -1.835938 165.707031 Z M 376.570312 165.667969 L 376.570312 192.59375 C 368.140625 192.753906 361.222656 195.078125 355.878906 199.519531 C 350.59375 203.925781 347.042969 209.882812 345.25 217.375 C 343.515625 224.929688 342.546875 237.878906 342.488281 256.238281 C 342.367188 274.660156 342.042969 286.722656 341.476562 292.578125 C 340.46875 301.929688 338.65625 309.363281 335.972656 314.9375 C 333.269531 320.515625 329.960938 324.957031 326.007812 328.292969 C 322.015625 331.664062 316.953125 334.210938 310.820312 335.945312 C 306.667969 337.179688 299.847656 337.804688 290.410156 337.804688 L 281.171875 337.804688 L 281.171875 311.890625 L 286.296875 311.890625 C 297.710938 311.890625 305.253906 309.808594 309.027344 305.6875 C 312.738281 301.566406 314.59375 292.277344 314.59375 277.851562 C 314.59375 250.363281 315.097656 232.890625 316.105469 225.515625 C 317.859375 213.355469 321.390625 203.539062 326.632812 196.226562 C 331.917969 188.957031 339.402344 183.261719 349.082031 179.160156 C 336.414062 173.140625 327.542969 165.140625 322.359375 155.164062 C 317.175781 145.183594 314.59375 128.398438 314.59375 104.746094 C 314.59375 83.273438 314.371094 70.488281 313.804688 66.265625 C 313.019531 58.871094 310.882812 53.761719 307.273438 50.832031 C 303.722656 47.964844 296.703125 46.492188 286.296875 46.492188 L 281.171875 46.492188 L 281.171875 20.574219 L 290.410156 20.574219 C 301.160156 20.574219 308.964844 21.421875 313.804688 23.222656 C 320.84375 25.644531 326.632812 29.707031 331.253906 35.382812 C 335.871094 41.117188 338.894531 48.328125 340.246094 57.015625 C 341.597656 65.761719 342.386719 80 342.507812 99.777344 C 342.566406 119.613281 343.515625 133.246094 345.269531 140.800781 C 347.066406 148.355469 350.613281 154.316406 355.898438 158.71875 C 361.242188 163.121094 368.160156 165.425781 376.59375 165.644531 Z M 376.570312 165.667969 " fill-opacity="1" fill-rule="nonzero"/></g></svg>